<?xml version="1.0" standalone="no"?>
<!DOCTYPE svg PUBLIC "-//W3C//DTD SVG 20010904//EN"
 "http://www.w3.org/TR/2001/REC-SVG-20010904/DTD/svg10.dtd">
<svg version="1.0" xmlns="http://www.w3.org/2000/svg"
 width="1772.000000pt" height="1772.000000pt" viewBox="0 0 1772.000000 1772.000000"
 preserveAspectRatio="xMidYMid meet">
<metadata>
Created by potrace 1.14, written by Peter Selinger 2001-2017
</metadata>
<g transform="translate(0.000000,1772.000000) scale(0.100000,-0.100000)"
fill="#000000" stroke="none">
<path d="M3275 12543 c-1412 -122 -2582 -1141 -2889 -2516 -87 -385 -99 -836
-35 -1232 87 -535 324 -1061 675 -1500 112 -140 347 -375 489 -488 891 -713
2080 -906 3149 -510 280 103 642 308 871 492 l90 72 3 -386 2 -385 568 2 567
3 0 1710 c0 1803 0 1791 -46 2064 -111 658 -423 1257 -903 1736 -508 507
-1139 819 -1857 920 -111 16 -572 28 -684 18z m421 -1133 c268 -22 525 -93
763 -211 612 -303 1033 -872 1146 -1549 22 -133 30 -391 16 -525 -59 -554
-321 -1054 -731 -1397 -643 -538 -1522 -650 -2265 -289 -424 206 -757 540
-966 966 -286 583 -288 1247 -4 1830 324 666 974 1113 1710 1175 136 11 190
11 331 0z"/>
<path d="M5631 12293 l0 -258 76 -60 c106 -84 318 -290 425 -414 341 -395 591
-870 723 -1375 19 -70 36 -130 38 -132 2 -3 12 17 22 43 10 27 44 100 75 163
273 546 771 944 1369 1095 319 80 683 80 1002 0 745 -188 1333 -767 1524
-1501 63 -243 59 -112 65 -2019 l5 -1740 543 -3 542 -2 0 1900 0 1900 -25 117
c-78 369 -242 758 -455 1082 -522 792 -1340 1307 -2280 1436 -165 23 -507 30
-681 16 -622 -53 -1193 -271 -1676 -639 -63 -48 -124 -93 -134 -101 -19 -13
-19 -4 -19 368 l0 381 -570 0 -570 0 1 -257z"/>
<path d="M13940 12544 c-19 -2 -80 -9 -135 -15 -278 -30 -628 -123 -893 -238
-255 -110 -537 -281 -757 -457 -125 -100 -361 -333 -449 -441 l-58 -73 64 -97
c220 -332 382 -695 473 -1060 16 -62 30 -111 33 -109 2 3 25 53 51 113 94 216
228 417 401 596 191 198 354 319 591 436 637 316 1387 285 1998 -81 935 -562
1284 -1752 799 -2723 -325 -651 -931 -1071 -1668 -1156 -129 -15 -407 -7 -540
16 -672 112 -1269 539 -1559 1113 -17 34 -33 62 -36 62 -3 0 -5 -386 -5 -859
l0 -859 123 -80 c367 -240 762 -399 1197 -481 394 -74 851 -73 1240 5 510 102
1024 341 1400 655 32 27 62 49 65 49 3 0 5 -173 5 -385 l0 -385 565 0 566 0
-4 1773 c-3 1762 -3 1773 -25 1909 -86 548 -266 993 -579 1435 -395 559 -1019
1006 -1683 1206 -306 93 -541 128 -885 132 -143 2 -276 1 -295 -1z"/>
<path d="M3467 5833 c-17 -28 -54 -97 -121 -226 -43 -82 -102 -194 -132 -250
-111 -207 -137 -264 -131 -280 6 -16 385 -17 5717 -17 l5710 0 0 390 0 390
-5519 0 c-3036 0 -5522 -3 -5524 -7z"/>
</g>
</svg>
